<svg id="Lager_1" data-name="Lager 1" xmlns="http://www.w3.org/2000/svg" viewBox="0 0 252.8 223.32"><defs><style>.cls-1{fill:#36a9e1;}</style></defs><title>Rityta 1</title><path class="cls-1" d="M217.45,222h-182a34,34,0,0,1-34-34V34.81A34,34,0,0,1,35.46.76h182A34.06,34.06,0,0,1,251.5,34.81v153.1A34,34,0,0,1,217.45,222ZM63.31,163.85S48,162.54,46.14,179.33c0,0-.45,16,15.76,16.48,14.36.46,16.4-14.67,16.4-14.67,0-16.83-15.1-17.14-15.06-17.3l0-4.5,72.68,5-.36,4.28s-14-1.11-16.94,14.26c0,0-2.06,15.53,14.74,17.82,0,0,16.39.46,17.19-16.33-1.32-14.62-15-15.75-15-15.75l.36-4.28,22.45,1.44a8.25,8.25,0,0,0,8.32-5.21L215.13,36.31l12.06,1.51a5,5,0,0,0,5.56-4.28l.07-.55a4.77,4.77,0,0,0-4.14-5.38L215.33,26a7.2,7.2,0,0,0-7.51,4.35l-8.27,19.6L45.27,39.3h-.48c-10.23.13-15.88,8.3-16,18.55a5.48,5.48,0,0,0,0,.7c.55,4.51,6.29,51.54,6.74,55.26a3.87,3.87,0,0,1,0,.48c.11,10.39,7.47,19,17.88,19l102.7,8.2a5,5,0,0,1,4.34,6.63l-1.23,3.57a5,5,0,0,1-5.06,3.37l-111.1-7a5,5,0,0,0-.67,10l20.82,1.31m56.32,3.84"/></svg>