<svg id="Lager_1" data-name="Lager 1" xmlns="http://www.w3.org/2000/svg" viewBox="0 0 210.84 180.67"><defs><style>.cls-1{fill:#36a9e1;}</style></defs><title>Rityta 1</title><path class="cls-1" d="M209.82,11.15,181.2,7.63Z"/><path class="cls-1" d="M206.08,16l-21.46-2.64c-2-.24-3.51-2.75-3.42-5.61V7.52c.09-2.86,1.76-5,3.74-4.74l21.46,2.64c2,.24,3.51,2.76,3.42,5.62v.22C209.73,14.12,208.06,16.24,206.08,16Z"/><rect class="cls-1" x="90.28" y="67.79" width="140.98" height="10" transform="translate(34.53 196.12) rotate(-68.69)"/><path class="cls-1" d="M135.65,143.78,11.46,135.24c-2.28-.15-4-2.51-3.79-5.27h0c.19-2.75,2.19-4.86,4.47-4.7l124.19,8.53c2.28.16,4,2.52,3.79,5.27h0C139.93,141.83,137.93,143.93,135.65,143.78Z"/><path class="cls-1" d="M147.31,108.51l22.05-59.85c3.83-10.38,14.48-20.48,4.19-21.19L19,16.85C9.31,16.19,1.42,25.37,2.78,35.76l8,61.15c1,7.62,6.77,13.42,13.89,14l116.26,8.76C147.62,120.13,144.83,115.25,147.31,108.51Z"/><circle class="cls-1" cx="108.42" cy="162.39" r="16.11"/><circle class="cls-1" cx="36.24" cy="157.6" r="16.11"/><path class="cls-1" d="M119.64,132.67s13.25,2.17,14.22-5.88-10.05-8.51-10.05-8.51l13-4.17,6.28,2.57-7,18.56L122,136.44Z"/></svg>