<svg id="Lager_1" data-name="Lager 1" xmlns="http://www.w3.org/2000/svg" viewBox="0 0 283.76 62.35"><defs><style>.cls-1{fill:#3c3c3b;}.cls-2{fill:#575756;}</style></defs><title>Rityta 1</title><path class="cls-1" d="M52,24.33A4.89,4.89,0,0,0,50,26.41l-1.88,4.17-1,.81L42.49,41.54,39.87,44.3l-.47,1a2.18,2.18,0,0,1-2,1.35c-2,0-4.17-3-4.5-6.52-.21-2.89-.54-6.66-1.89-7.2h-.07c-.4,0-1.2,1.35-1.2,1.35l-1.15,2.35-2.08,5.72-1.95,3.89a3,3,0,0,1-2.89,1.89,3.28,3.28,0,0,1-2.76-1.55l-2.42-3.7-1.88-5.64-1.15-3.1-1.61-2.42S11.7,28,10.15,28s-2.69.88-4.24.88a3.48,3.48,0,0,1-3.16-3.56,2.71,2.71,0,0,1,1.89-2.9L6.38,22l.88-.8,6.32-.81a17.43,17.43,0,0,1,3.29-1.14,4.14,4.14,0,0,1,4.1,4,3,3,0,0,1-1,2.22l-1.08.94-.13,3.36,1.07,1.68,1.55,5.25c.13.54.47.8.8.8s.95-.53,1-1.54l.2-2.09L24,31.92l.13-.94L25,28.83c1.21-3.23,4.23-7,5.91-7a4,4,0,0,1,3.7,2.69l2.63,5.71,1.14,3.37.87.06.88-1L40.47,31l1.08-1.14,1-2.89a10.23,10.23,0,0,0,1-1.61l-.47-1.62-1.69-1.88a2,2,0,0,1-.47-1.41c0-1.68,2-2.36,3.84-2.63l5.37-.8,1.08.6,1-.13s2.55,1.88,2.55,3.29C54.79,22.44,53.45,23.18,52,24.33Z"/><path class="cls-2" d="M79.12,39.12l-2.55.13-2.22.54a16.85,16.85,0,0,1-3.83.34H68c-.47,0-1-.07-1.48-.07a1.56,1.56,0,0,0-1.41.6.86.86,0,0,0-.2.61,1.07,1.07,0,0,0,.47.94l.88.54.8,1,4.31,1.14a18.05,18.05,0,0,1,4.37-1.14,3.07,3.07,0,0,1,3.22,3.29c0,3.36-2.62,4.84-7,4.84-8.74,0-14.59-6-14.59-13.31,0-6.66,5.51-10.42,5.51-10.42l1.89-.74,1.81-1.21,5.78-.81,5,1.21C80.13,27.28,83,31.45,83,36,83,37.84,81.21,38.85,79.12,39.12Zm-2.48-6.25c0-.95-2.42-2.16-5.18-2.16-4.17,0-5.65,2.69-5.65,2.69l-.33,1.75L67,35H72.2l.87-.4,3.3-.68.27-.8Z"/><path class="cls-1" d="M118.16,45.91l-5.72.07-2.55-1-1.21-1.21s-1.14-1.55-2.15-1.55c-.47,0-.81.61-.81,1.14a.73.73,0,0,0,.13.54l2.49,3.57-.47,1.68-.81.8c-.8.81-1.21.88-2.82.88a21.49,21.49,0,0,1-3.23-.47l-.8-.47L99,50l-1.42-.27H95.84c-2.56,0-3.1-.47-3.1-2.28a3.74,3.74,0,0,1,1.82-3.63l2.89-1.48c.74-.41.81-1.42.81-2.09v-.54l.53-1.88L99.06,36l.81-2.16.61-5.31-.34-1.68V22.44c0-3,.87-5,.87-7.8,0-1.27-.4-3.09-1.14-3.09s-1,.07-1.88.07c-1.41,0-3.23-2.35-3.23-4.44,0-1.54.94-3.09,2.56-3.09l6.52.2,4.5-.13L110.83,6l-.47,3.3s-3.3,4-3.36,5.78l-.2,4.44L106.59,22l-.26,2.83.6.6.94-.4,1.21-.14,2.36-.4,1.2-.6s15.2,0,15.2,13.71C127.84,42.41,125.22,45.84,118.16,45.91Zm3.29-8.54c0-1.21-.4-7-8.33-7-2.42,0-5.25.87-5.25,3.83,0,3.5,5.72,4.51,10,4.51h1.28l1.14-.74,1.14-.41Z"/><path class="cls-2" d="M158.23,31.76c-.74,0-2.35-1.68-3.76-2.82a4.19,4.19,0,0,0-1.68-.94,6.54,6.54,0,0,0-1.08-.14,2.78,2.78,0,0,0-2.28,1l-1.08,1.21-.07,1,.94.67,3.5.88,5,4.17c1,.8,2,3.9,2,5,0,4.51-3.5,8.27-7.4,8.34l-2.35.07-4-.54-2.63,2.08a5.48,5.48,0,0,1-1.27.14c-1.35,0-3.36-.54-3.36-3.77s2.55-7.46,2.55-7.46l1.41-1.41,2.56.53,1.41,1.55.27,1.08.81.6.4.67,1.41-.2s3.29-.2,3.29-1.41c0-2.15-.73-3.36-2.48-4.1l-5.78-2.56c-1.22-.53-2.42-1.68-2.42-4.3,0-3.63,2.55-6.45,6.38-7.33l4.78-1.07,1.14-.61.94-2a7.19,7.19,0,0,1,2-.61,3.85,3.85,0,0,1,4,4v.14l-.06,1.81a20.89,20.89,0,0,1,.74,3.1C162.07,30.75,160.59,31.76,158.23,31.76Z"/><path class="cls-1" d="M200.76,56.42h-.34l-2.08-.2-1.88.47h-3.1c-3.83,0-3.9-1.68-3.9-4.1v-.27a3.14,3.14,0,0,1,2.42-3.23l1.15-.54a1.22,1.22,0,0,0,.74-1.28V47l-.47-5.72.26-3.7-.47-1.14a7.78,7.78,0,0,0,.14-1.41c0-1.21-.34-2.76-1.88-2.76-3.84,0-4.37,1.28-4.37,1.28l-2.22,2.89-.21,2.35-.4,1.48-.4,4.44-.54,1.55L183.14,48l2.76,2.29a5.15,5.15,0,0,1,.07.94c0,1.41-.34,3.9-2.62,4.44l-1.08.27-.81.74-4.91.27h-1.34c-2.35,0-4.51-1.62-4.51-3.84,0-1.21.34-2.35,1.48-2.75l3.63-1.68,1.42-4.91V39.21l.67-4.78.27-4.57.54-1.68.33-6.12.54-1.81V18.56l-.34-1.74-1.54.4-1.21-1s-2-.87-2-1.81a6.39,6.39,0,0,1,.53-2l.34-1.88,2.15-1.08,2.29-.07.94-.4,3.56-.4A12,12,0,0,1,186.1,8c2.22,0,3.56,2.76,3.56,4.1,0,.4-2.28,2.22-3.49,3.09v3.36l-.4,1.82.06,1.61a11.89,11.89,0,0,0-.54,3c0,.81.21,1.41.88,1.41s5-1.61,5.85-1.61c5,0,8.27,4.91,8.27,12.44,0,2.15-.2,5-.27,5.65l.4,3.76-.2,1.88,2.49.88c1.28.47,1.68,1.88,1.68,3.16A3.85,3.85,0,0,1,200.76,56.42Z"/><path class="cls-2" d="M225.82,48c-7.47,0-15-7.74-15-13,0-2.48,6.79-12.37,13.72-12.37a8,8,0,0,1,5.31,2.56c1.14.33,4.23,1.27,5,2.08,1.35,1.48,3.5,7.06,3.5,9.08C238.32,42.66,231.87,48,225.82,48Zm-1.08-17.82a4.67,4.67,0,0,0-1.28.27A20.86,20.86,0,0,0,221,30c-1.21,0-3,3.83-3,5.51,0,2.69,3.9,5.78,7.6,5.78,2.82,0,5.91-2.35,5.91-4.91C231.46,33,228,30.16,224.74,30.16Z"/><path class="cls-1" d="M264.92,38.22c-2.76,0-5.18-3-6.18-3s-1.08,1.14-1.08,1.35l-.14,1.07-.6,2.89.13,2.49-.94,5,.21,2.55c.2,4.17,3.69,3.9,3.69,5.31a5.08,5.08,0,0,1-5,4.78h-4c-3.9,0-8.94-1.75-8.94-4.38,0-2.89,5.72-.73,6.79-3.76a67.33,67.33,0,0,0,2-7.26L250.53,43l.61-5-.2-1.21.47-3,.13-5.38.81-6.19.94-5V17c0-.6-.27-1.41-.81-1.41-1.21,0-2.15,1.08-3.43,1.08-2.35,0-3.76-2.56-3.76-4.78,0-1.68,8.2-4,9.48-4h.81c2.55,0,5.44.13,5.44,2.42v1.61l-.67.81a1.51,1.51,0,0,0-.34,1c0,.54.2,1,.88,1a1.27,1.27,0,0,0,.47-.07l4.44-1.21a5.65,5.65,0,0,1,1.2-.14c4.44,0,12.65,4.71,12.65,13.52C279.65,33.85,276.08,38.22,264.92,38.22Zm1.61-18.09-1,.47h-3s-3,.88-3,5.18c0,2.49,4.23,5.72,8.2,5.72,3.36,0,4.91-2.56,4.91-5.25C272.59,21.48,266.53,20.13,266.53,20.13Z"/></svg>